<svg data-v-fde0c5aa="" xmlns="http://www.w3.org/2000/svg" viewBox="0 0 300 300" class="font"><!----><defs data-v-fde0c5aa=""><!----></defs><rect data-v-fde0c5aa="" fill="transparent" x="0" y="0" width="300px" height="300px" class="logo-background-square"></rect><defs data-v-fde0c5aa=""><linearGradient data-v-fde0c5aa="" gradientTransform="rotate(25)" id="4a7e0afd-3d0b-482f-8f6d-20865b2ef202" x1="0%" y1="0%" x2="100%" y2="0%"><stop data-v-fde0c5aa="" offset="0%" stop-color="#E36459" stop-opacity="1"></stop><stop data-v-fde0c5aa="" offset="100%" stop-color="#7F2923" stop-opacity="1"></stop></linearGradient></defs><g data-v-fde0c5aa="" id="9064d539-5f6c-4504-bef4-10507bf606d7" fill="url(#4a7e0afd-3d0b-482f-8f6d-20865b2ef202)" transform="matrix(3.823230028152466,0,0,3.823230028152466,36.9085601792139,112.52935985337044)"><path d="M5.81 8.79L5.81 10.08L8.33 10.08L8.33 12.15C7.67 12.60 6.79 12.85 5.85 12.85C3.67 12.85 2.17 11.13 2.17 9.10C2.17 7.06 3.67 5.35 5.85 5.35C6.99 5.35 7.90 5.75 8.57 6.44L9.46 5.49C8.60 4.59 7.35 4.03 5.84 4.03C2.79 4.03 0.81 6.38 0.81 9.10C0.81 11.82 2.79 14.17 5.84 14.17C7.42 14.17 8.79 13.62 9.66 12.71L9.66 8.79ZM12.53 5.68C13.05 5.68 13.43 5.29 13.43 4.77C13.43 4.28 13.05 3.89 12.53 3.89C12.01 3.89 11.63 4.28 11.63 4.77C11.63 5.29 12.01 5.68 12.53 5.68ZM11.87 14L13.19 14L13.19 7L11.87 7ZM18.55 7L17.11 7L17.11 5.12L15.79 5.12L15.79 7L14.90 7L14.90 8.26L15.79 8.26L15.79 14L17.11 14L17.11 8.26L18.55 8.26ZM24.61 14.18C27.65 14.18 29.64 11.83 29.64 9.10C29.64 6.38 27.65 4.03 24.61 4.03C21.56 4.03 19.57 6.38 19.57 9.10C19.57 11.83 21.56 14.18 24.61 14.18ZM24.61 12.87C22.40 12.87 20.93 11.10 20.93 9.10C20.93 7.10 22.40 5.35 24.61 5.35C26.81 5.35 28.31 7.10 28.31 9.10C28.31 11.10 26.81 12.87 24.61 12.87ZM35.21 6.90C34.17 6.90 33.36 7.39 32.82 8.12L32.82 7L31.50 7L31.50 16.80L32.82 16.80L32.82 12.88C33.36 13.61 34.17 14.10 35.21 14.10C37.16 14.10 38.49 12.52 38.49 10.50C38.49 8.48 37.16 6.90 35.21 6.90ZM34.99 12.81C33.73 12.81 32.82 11.73 32.82 10.50C32.82 9.27 33.73 8.18 34.99 8.18C36.25 8.18 37.13 9.21 37.13 10.50C37.13 11.77 36.25 12.81 34.99 12.81ZM41.94 14.11C43.40 14.11 44.37 13.24 44.38 12.10C44.38 9.66 41.02 10.12 41.03 8.86C41.03 8.44 41.41 8.16 41.94 8.16C42.53 8.16 43.09 8.57 43.40 8.85L44.17 7.88C43.74 7.39 42.91 6.87 41.93 6.89C40.56 6.89 39.68 7.77 39.68 8.83C39.66 11.21 43.01 10.71 43.01 12.07C43.01 12.53 42.57 12.84 41.99 12.84C41.33 12.84 40.73 12.45 40.29 12.03L39.47 13.01C40.04 13.65 41.06 14.11 41.94 14.11ZM46.14 14.10C46.63 14.10 47.03 13.71 47.03 13.22C47.03 12.74 46.63 12.33 46.14 12.33C45.65 12.33 45.28 12.74 45.28 13.22C45.28 13.71 45.65 14.10 46.14 14.10ZM52.11 6.90C51.07 6.90 50.26 7.39 49.71 8.12L49.71 7L48.40 7L48.40 16.80L49.71 16.80L49.71 12.88C50.26 13.61 51.07 14.10 52.11 14.10C54.05 14.10 55.38 12.52 55.38 10.50C55.38 8.48 54.05 6.90 52.11 6.90ZM51.88 12.81C50.62 12.81 49.71 11.73 49.71 10.50C49.71 9.27 50.62 8.18 51.88 8.18C53.14 8.18 54.03 9.21 54.03 10.50C54.03 11.77 53.14 12.81 51.88 12.81ZM57.04 14L58.35 14L58.35 2.80L57.04 2.80Z"></path></g><!----><!----></svg>